<svg width="52" height="52" viewBox="0 0 52 52" fill="none" xmlns="http://www.w3.org/2000/svg">
<g clip-path="url(#clip0)">
<path d="M10 25.3298C10 22.4889 10.7147 19.8673 12.144 17.4651C13.5733 15.0629 15.5147 13.162 17.968 11.7624C20.4213 10.3629 23.0987 9.66309 26 9.66309C28.9013 9.66309 31.5787 10.3629 34.032 11.7624C36.4853 13.162 38.4267 15.0629 39.856 17.4651C41.2853 19.8673 42 22.4889 42 25.3298C42 28.1707 41.2853 30.7922 39.856 33.1944C38.4267 35.5967 36.4853 37.4975 34.032 38.8971C31.5787 40.2966 28.9013 40.9964 26 40.9964C23.0987 40.9964 20.4213 40.2966 17.968 38.8971C15.5147 37.4975 13.5733 35.5967 12.144 33.1944C10.7147 30.7922 10 28.1707 10 25.3298ZM12.656 25.3298C12.656 28.5884 13.776 31.4607 16.016 33.9464C17.04 31.9829 18.6613 30.1133 20.88 28.3378C23.0987 26.5622 25.264 25.4447 27.376 24.9851C27.056 24.254 26.7467 23.596 26.448 23.0111C22.7787 24.16 18.8107 24.7344 14.544 24.7344C13.712 24.7344 13.0933 24.724 12.688 24.7031C12.688 24.7867 12.6827 24.8911 12.672 25.0164C12.6613 25.1418 12.656 25.2462 12.656 25.3298ZM13.072 22.1024C13.5413 22.1442 14.2347 22.1651 15.152 22.1651C18.7147 22.1651 22.096 21.6951 25.296 20.7551C23.6747 17.9351 21.8933 15.5851 19.952 13.7051C18.2667 14.5407 16.8213 15.7 15.616 17.1831C14.4107 18.6662 13.5627 20.306 13.072 22.1024ZM17.84 35.6384C20.2507 37.4766 22.9707 38.3958 26 38.3958C27.5787 38.3958 29.1467 38.1033 30.704 37.5184C30.2773 33.9464 29.4453 30.4893 28.208 27.1471C26.2453 27.5649 24.2667 28.6198 22.272 30.3118C20.2773 32.0038 18.8 33.7793 17.84 35.6384ZM22.736 12.7024C24.6133 14.6033 26.352 16.9742 27.952 19.8151C30.8533 18.6244 33.04 17.11 34.512 15.2718C32.0373 13.2664 29.2 12.2638 26 12.2638C24.912 12.2638 23.824 12.41 22.736 12.7024ZM29.104 22.0398C29.424 22.7082 29.7867 23.5542 30.192 24.5778C31.7707 24.4315 33.488 24.3584 35.344 24.3584C36.6667 24.3584 37.9787 24.3898 39.28 24.4524C39.1093 21.6115 38.064 19.084 36.144 16.8698C34.7573 18.896 32.4107 20.6193 29.104 22.0398ZM30.992 26.7711C32.08 29.8627 32.816 33.0378 33.2 36.2964C34.8853 35.2311 36.2613 33.8629 37.328 32.1918C38.3947 30.5207 39.0347 28.7138 39.248 26.7711C37.6907 26.6667 36.272 26.6144 34.992 26.6144C33.8187 26.6144 32.4853 26.6667 30.992 26.7711Z" fill="white"/>
</g>
<path d="M51 25.9967C51 39.6076 39.8193 50.6634 26 50.6634C12.1807 50.6634 1 39.6076 1 25.9967C1 12.3858 12.1807 1.33008 26 1.33008C39.8193 1.33008 51 12.3858 51 25.9967Z" stroke="white" stroke-width="2"/>
<defs>
<clipPath id="clip0">
<rect width="32" height="31.3333" fill="white" transform="translate(10 9.66309)"/>
</clipPath>
</defs>
</svg>
