<svg width="78" height="77" viewBox="0 0 78 77" fill="none" xmlns="http://www.w3.org/2000/svg">
<path d="M15 37.5C15 33.2387 16.072 29.3063 18.216 25.703C20.36 22.0997 23.272 19.2483 26.952 17.149C30.632 15.0497 34.648 14 39 14C43.352 14 47.368 15.0497 51.048 17.149C54.728 19.2483 57.64 22.0997 59.784 25.703C61.928 29.3063 63 33.2387 63 37.5C63 41.7613 61.928 45.6936 59.784 49.297C57.64 52.9003 54.728 55.7516 51.048 57.851C47.368 59.9503 43.352 61 39 61C34.648 61 30.632 59.9503 26.952 57.851C23.272 55.7516 20.36 52.9003 18.216 49.297C16.072 45.6936 15 41.7613 15 37.5ZM18.984 37.5C18.984 42.388 20.664 46.6963 24.024 50.425C25.56 47.4796 27.992 44.6753 31.32 42.012C34.648 39.3486 37.896 37.6723 41.064 36.983C40.584 35.8863 40.12 34.8993 39.672 34.022C34.168 35.7453 28.216 36.607 21.816 36.607C20.568 36.607 19.64 36.5913 19.032 36.56C19.032 36.6853 19.024 36.842 19.008 37.03C18.992 37.218 18.984 37.3747 18.984 37.5ZM19.608 32.659C20.312 32.7217 21.352 32.753 22.728 32.753C28.072 32.753 33.144 32.048 37.944 30.638C35.512 26.408 32.84 22.883 29.928 20.063C27.4 21.3163 25.232 23.0553 23.424 25.28C21.616 27.5047 20.344 29.9643 19.608 32.659ZM26.76 52.963C30.376 55.7203 34.456 57.099 39 57.099C41.368 57.099 43.72 56.6603 46.056 55.783C45.416 50.425 44.168 45.2393 42.312 40.226C39.368 40.8526 36.4 42.435 33.408 44.973C30.416 47.511 28.2 50.1743 26.76 52.963ZM34.104 18.559C36.92 21.4103 39.528 24.9667 41.928 29.228C46.28 27.442 49.56 25.1703 51.768 22.413C48.056 19.405 43.8 17.901 39 17.901C37.368 17.901 35.736 18.1203 34.104 18.559ZM43.656 32.565C44.136 33.5676 44.68 34.8367 45.288 36.372C47.656 36.1527 50.232 36.043 53.016 36.043C55 36.043 56.968 36.09 58.92 36.184C58.664 31.9227 57.096 28.1313 54.216 24.81C52.136 27.8493 48.616 30.4343 43.656 32.565ZM46.488 39.662C48.12 44.2993 49.224 49.062 49.8 53.95C52.328 52.352 54.392 50.2996 55.992 47.793C57.592 45.2863 58.552 42.576 58.872 39.662C56.536 39.5053 54.408 39.427 52.488 39.427C50.728 39.427 48.728 39.5053 46.488 39.662Z" fill="white"/>
<path d="M77 38.5C77 59.1986 59.999 76 39 76C18.001 76 1 59.1986 1 38.5C1 17.8014 18.001 1 39 1C59.999 1 77 17.8014 77 38.5Z" stroke="white" stroke-width="2"/>
</svg>
