<svg width="184" height="34" viewBox="0 0 184 34" fill="none" xmlns="http://www.w3.org/2000/svg">
<path d="M6.984 33H0.168V0.983997H15.144C18.504 0.983997 21.128 1.976 23.016 3.96C24.936 5.912 25.896 8.36 25.896 11.304C25.896 14.216 24.936 16.664 23.016 18.648C21.096 20.632 18.472 21.624 15.144 21.624H6.984V33ZM14.232 15.624C15.608 15.624 16.728 15.24 17.592 14.472C18.488 13.672 18.936 12.616 18.936 11.304C18.936 9.992 18.488 8.952 17.592 8.184C16.728 7.384 15.608 6.984 14.232 6.984H6.984V15.624H14.232ZM36.0731 33H29.9771V9.816H36.0731V12.984C36.9371 11.896 38.0411 11 39.3851 10.296C40.7291 9.592 42.0891 9.24 43.4651 9.24V15.192C43.0491 15.096 42.4891 15.048 41.7851 15.048C40.7611 15.048 39.6731 15.304 38.5211 15.816C37.3691 16.328 36.5531 16.952 36.0731 17.688V33ZM66.954 30.072C64.714 32.408 61.738 33.576 58.026 33.576C54.314 33.576 51.338 32.408 49.098 30.072C46.89 27.704 45.786 24.808 45.786 21.384C45.786 17.96 46.89 15.08 49.098 12.744C51.338 10.408 54.314 9.24 58.026 9.24C61.738 9.24 64.714 10.408 66.954 12.744C69.194 15.08 70.314 17.96 70.314 21.384C70.314 24.808 69.194 27.704 66.954 30.072ZM53.706 26.232C54.762 27.512 56.202 28.152 58.026 28.152C59.85 28.152 61.29 27.512 62.346 26.232C63.434 24.92 63.978 23.304 63.978 21.384C63.978 19.496 63.434 17.912 62.346 16.632C61.29 15.32 59.85 14.664 58.026 14.664C56.202 14.664 54.762 15.32 53.706 16.632C52.65 17.912 52.122 19.496 52.122 21.384C52.122 23.304 52.65 24.92 53.706 26.232ZM94.3639 33H87.5479L82.2679 25.176L76.9399 33H70.1719L78.3799 21.096L70.6519 9.816H77.4679L82.2679 16.968L87.0199 9.816H93.8359L86.0599 21.096L94.3639 33ZM100.407 7.32C99.4154 7.32 98.5514 6.968 97.8154 6.264C97.1114 5.528 96.7594 4.664 96.7594 3.672C96.7594 2.68 97.1114 1.832 97.8154 1.128C98.5514 0.423998 99.4154 0.0719976 100.407 0.0719976C101.431 0.0719976 102.295 0.423998 102.999 1.128C103.703 1.832 104.055 2.68 104.055 3.672C104.055 4.664 103.703 5.528 102.999 6.264C102.295 6.968 101.431 7.32 100.407 7.32ZM103.479 33H97.3834V9.816H103.479V33ZM144.42 33H138.276V18.36C138.276 15.896 137.124 14.664 134.82 14.664C133.828 14.664 132.9 14.936 132.036 15.48C131.204 16.024 130.532 16.648 130.02 17.352V33H123.876V18.36C123.876 15.896 122.724 14.664 120.42 14.664C119.46 14.664 118.548 14.936 117.684 15.48C116.82 16.024 116.132 16.664 115.62 17.4V33H109.524V9.816H115.62V12.84C116.196 12.008 117.204 11.208 118.644 10.44C120.084 9.64 121.604 9.24 123.204 9.24C126.564 9.24 128.708 10.648 129.636 13.464C130.372 12.312 131.46 11.32 132.9 10.488C134.372 9.656 135.94 9.24 137.604 9.24C139.78 9.24 141.46 9.832 142.644 11.016C143.828 12.168 144.42 13.912 144.42 16.248V33ZM170.415 33H164.319V30.6C162.655 32.584 160.207 33.576 156.975 33.576C154.895 33.576 153.023 32.904 151.359 31.56C149.727 30.184 148.911 28.296 148.911 25.896C148.911 23.4 149.711 21.528 151.311 20.28C152.943 19.032 154.831 18.408 156.975 18.408C160.271 18.408 162.719 19.352 164.319 21.24V18.12C164.319 16.936 163.855 15.992 162.927 15.288C161.999 14.584 160.767 14.232 159.231 14.232C156.703 14.232 154.447 15.144 152.463 16.968L150.159 12.888C152.911 10.456 156.287 9.24 160.287 9.24C163.263 9.24 165.695 9.928 167.583 11.304C169.471 12.68 170.415 14.92 170.415 18.024V33ZM159.423 29.448C161.695 29.448 163.327 28.776 164.319 27.432V24.552C163.327 23.208 161.695 22.536 159.423 22.536C158.175 22.536 157.135 22.856 156.303 23.496C155.471 24.104 155.055 24.952 155.055 26.04C155.055 27.096 155.471 27.928 156.303 28.536C157.135 29.144 158.175 29.448 159.423 29.448ZM182.318 32.376C181.55 33.144 180.638 33.528 179.582 33.528C178.526 33.528 177.614 33.144 176.846 32.376C176.078 31.608 175.694 30.696 175.694 29.64C175.694 28.584 176.078 27.672 176.846 26.904C177.614 26.136 178.526 25.752 179.582 25.752C180.638 25.752 181.55 26.136 182.318 26.904C183.086 27.672 183.47 28.584 183.47 29.64C183.47 30.696 183.086 31.608 182.318 32.376Z" fill="white"/>
</svg>
