<svg width="48" height="76" viewBox="0 0 48 76" fill="none" xmlns="http://www.w3.org/2000/svg">
<path d="M19.224 51.968L30.996 48.512C29.916 47.54 29.052 45.704 29.052 43.976C29.052 34.904 47.088 33.716 47.088 17.948C47.088 7.90399 38.556 0.883995 24.624 0.883995C15.336 0.883995 6.696 4.664 0.972 11.36L9.72 21.188C13.068 17.192 17.604 14.492 23.004 14.492C28.944 14.492 31.428 17.3 31.428 20.648C31.428 28.1 15.66 29.612 15.66 42.464C15.66 46.244 16.956 49.484 19.224 51.968ZM24.408 75.188C29.16 75.188 33.156 71.192 33.156 66.44C33.156 61.688 29.16 57.692 24.408 57.692C19.656 57.692 15.66 61.688 15.66 66.44C15.66 71.192 19.656 75.188 24.408 75.188Z" fill="#FFBBBB"/>
</svg>
